<svg id="Komponente_1_2" data-name="Komponente 1 – 2" xmlns="http://www.w3.org/2000/svg" width="270" height="90" viewBox="0 0 270 90">
  <defs>
    <style>
      .cls-1 {
        fill: #476c85;
        font-size: 71px;
        font-family: AllertaStencil-Regular, Allerta Stencil;
        letter-spacing: -0.054em;
      }

      .cls-2 {
        fill: #c97f63;
        stroke: #d3a392;
      }
    </style>
  </defs>
  <text id="Mosk_to" data-name="Mosk  to" class="cls-1" transform="translate(0 73)"><tspan x="0" y="0" xml:space="preserve">Mosk  to</tspan></text>
  <g id="Komponente_3_1" data-name="Komponente 3 – 1" transform="translate(135.429 8.693)">
    <g id="Gruppe_18" data-name="Gruppe 18" transform="matrix(0.966, 0.259, -0.259, 0.966, -12.548, -113.927)">
      <g id="Gruppe_9" data-name="Gruppe 9" transform="translate(56.817 102.722)">
        <g id="Gruppe_2" data-name="Gruppe 2" transform="translate(0 0.892)">
          <path id="Pfad_1" data-name="Pfad 1" class="cls-2" d="M241.849,274.127a48.086,48.086,0,0,0-.757-6.879,13.96,13.96,0,0,1-4.118,0,48.011,48.011,0,0,0-.756,6.879A20.775,20.775,0,0,0,241.849,274.127Z" transform="translate(-197.935 -233.321)"/>
          <path id="Pfad_2" data-name="Pfad 2" class="cls-2" d="M238.746,306.138a21.8,21.8,0,0,1-2.854-.189q-.033,1.076-.035,2.2c0,1.675.058,3.283.163,4.778a28.589,28.589,0,0,0,5.451,0c.105-1.5.163-3.1.163-4.778q0-1.122-.034-2.2A21.834,21.834,0,0,1,238.746,306.138Z" transform="translate(-197.647 -264.118)"/>
          <path id="Pfad_3" data-name="Pfad 3" class="cls-2" d="M237.057,345.164c.448,5.066,1.463,8.6,2.644,8.6s2.2-3.538,2.644-8.6q-1.32.118-2.644.12T237.057,345.164Z" transform="translate(-198.602 -295.323)"/>
          <g id="Gruppe_1" data-name="Gruppe 1" transform="translate(0 22.265)">
            <path id="Pfad_4" data-name="Pfad 4" class="cls-2" d="M63.784,210.778a87.232,87.232,0,0,0-13.463,2.495c-4.9,1.378,2.441,7.783,14.463,6.436,9.382-1.051,17.24-3.165,20.108-5.214a19.34,19.34,0,0,1-.537-3.16C80.986,210.036,72.986,209.746,63.784,210.778Z" transform="translate(-48.782 -210.154)"/>
            <path id="Pfad_5" data-name="Pfad 5" class="cls-2" d="M295.525,210.778a87.229,87.229,0,0,1,13.462,2.495c4.9,1.378-2.441,7.783-14.463,6.436-9.382-1.051-17.24-3.165-20.108-5.214a19.334,19.334,0,0,0,.537-3.16C278.323,210.036,286.323,209.746,295.525,210.778Z" transform="translate(-228.331 -210.154)"/>
          </g>
          <path id="Pfad_6" data-name="Pfad 6" class="cls-2" d="M249.2,115.581a.2.2,0,0,0,.2-.2v-14.03a.2.2,0,0,0-.409,0v14.03A.2.2,0,0,0,249.2,115.581Z" transform="translate(-208.106 -101.143)"/>
        </g>
        <path id="Pfad_7" data-name="Pfad 7" class="cls-2" d="M238.928,153.264s0-.009,0-.014c0-.77-.336-1.393-.751-1.393s-.751.624-.751,1.393c0,0,0,.009,0,.014a3.8,3.8,0,0,0-2.284,3.728,4.444,4.444,0,0,0,.812,2.616,4.783,4.783,0,0,1,4.559-.16,4.5,4.5,0,0,0,.7-2.456A3.8,3.8,0,0,0,238.928,153.264Z" transform="translate(-197.079 -140.606)"/>
        <g id="Gruppe_3" data-name="Gruppe 3" transform="translate(34.522 7.136)">
          <path id="Pfad_8" data-name="Pfad 8" class="cls-2" d="M222.42,137.984a6.809,6.809,0,0,0-.628-1.829,11.915,11.915,0,0,0-1.035-1.716,11.731,11.731,0,0,0-1.317-1.532,6.325,6.325,0,0,0-1.639-1.192,6.424,6.424,0,0,1,1.773,1.038,12,12,0,0,1,1.5,1.431,12.42,12.42,0,0,1,1.252,1.675,7.49,7.49,0,0,1,.891,1.959Z" transform="translate(-217.801 -131.714)"/>
          <path id="Pfad_9" data-name="Pfad 9" class="cls-2" d="M255.67,137.816a7.494,7.494,0,0,1,.891-1.959,12.434,12.434,0,0,1,1.252-1.675,12,12,0,0,1,1.5-1.431,6.423,6.423,0,0,1,1.773-1.038,6.325,6.325,0,0,0-1.639,1.192,11.71,11.71,0,0,0-1.317,1.532,11.915,11.915,0,0,0-1.035,1.716,6.811,6.811,0,0,0-.628,1.829Z" transform="translate(-247.935 -131.714)"/>
        </g>
        <g id="Gruppe_8" data-name="Gruppe 8" transform="translate(14.036)">
          <g id="Gruppe_4" data-name="Gruppe 4" transform="translate(14.225)">
            <path id="Pfad_10" data-name="Pfad 10" class="cls-2" d="M194.083,119.309c-.064,0-.091-.026-.145-.086l-5.473-5.508c-.117-.116-.235-.235-.374-.39a3.84,3.84,0,0,1-.906-3.041,3.763,3.763,0,0,1,.2-.789,2.667,2.667,0,0,1,.116-.28l.046-.1.16-.32,1.941-3.848c.6-1.2,1.218-2.4,1.816-3.571l.768-1.5.319-2.846a.285.285,0,0,1,.284-.254l.032,0a.285.285,0,0,1,.253.307l-.239,2.975L192.1,101.7c-.558,1.181-1.135,2.4-1.717,3.6l-1.867,3.885-.153.321c-.015.035-.027.063-.039.092a1.6,1.6,0,0,0-.079.2,2.844,2.844,0,0,0-.139.593,2.938,2.938,0,0,0,.7,2.295c.089.1.22.23.345.354l5.485,5.451c.088.081.124.114.07.283a.778.778,0,0,1-.5.5A.441.441,0,0,1,194.083,119.309Z" transform="translate(-187.147 -96.774)"/>
            <path id="Pfad_11" data-name="Pfad 11" class="cls-2" d="M276.343,119.309a.442.442,0,0,1-.13-.025.777.777,0,0,1-.5-.5c-.054-.168-.018-.2.062-.274l5.491-5.456c.12-.119.257-.255.348-.357a2.937,2.937,0,0,0,.7-2.293,2.892,2.892,0,0,0-.142-.6,1.549,1.549,0,0,0-.074-.191c-.013-.03-.026-.059-.038-.088l-.157-.328-1.867-3.885c-.576-1.189-1.15-2.4-1.7-3.578l-.791-1.672-.239-2.976a.286.286,0,0,1,.263-.308h.023a.285.285,0,0,1,.284.254l.319,2.846.775,1.514c.6,1.162,1.211,2.363,1.809,3.557l1.941,3.849.162.324.044.1a2.588,2.588,0,0,1,.114.274,3.8,3.8,0,0,1-.7,3.837c-.137.153-.255.271-.369.385l-5.469,5.5C276.434,119.282,276.407,119.309,276.343,119.309Z" transform="translate(-257.604 -96.774)"/>
          </g>
          <g id="Gruppe_7" data-name="Gruppe 7" transform="translate(0 28.874)">
            <g id="Gruppe_5" data-name="Gruppe 5">
              <path id="Pfad_12" data-name="Pfad 12" class="cls-2" d="M176.182,252.538l-2.656,7.8-.332.975-.169.493a3.539,3.539,0,0,1-.252.559,3.359,3.359,0,0,1-.339.5l-.1.112-.083.092-.165.183-.66.733-2.641,2.932-5.282,5.864c-.059.066-.1.11-.143.166s-.084.111-.123.169a2.491,2.491,0,0,0-.337.781c-.018.071-.031.14-.043.215l-.041.257-.326,2.056-.652,4.111a.369.369,0,0,1-.421.33.407.407,0,0,1-.294-.468l.6-4.121.3-2.06.038-.258c.015-.1.032-.2.055-.3a3.544,3.544,0,0,1,.182-.57,3.472,3.472,0,0,1,.273-.524c.053-.082.108-.162.168-.238s.127-.154.177-.212l5.208-5.947,2.6-2.974.651-.743.163-.186.082-.093.064-.077a2.229,2.229,0,0,0,.221-.334,2.359,2.359,0,0,0,.162-.373l.158-.484.32-.98,2.558-7.84a.557.557,0,0,1,.735-.383.67.67,0,0,1,.34.827Z" transform="translate(-152.214 -248.901)"/>
              <path id="Pfad_13" data-name="Pfad 13" class="cls-2" d="M140.265,239.219l-5.1,4.948-.638.619-.323.313a2.745,2.745,0,0,1-.418.328,2.6,2.6,0,0,1-.464.235l-.121.043-.1.033-.2.067-.808.266-3.231,1.065-6.462,2.131c-.073.024-.121.04-.177.063s-.108.048-.161.075a1.906,1.906,0,0,0-.3.2,1.968,1.968,0,0,0-.262.258c-.041.048-.077.1-.116.15l-.131.186-1.045,1.486-2.091,2.971a.32.32,0,0,1-.485.063.423.423,0,0,1-.059-.541l2.052-3.006,1.026-1.5.128-.188c.049-.07.1-.144.158-.211a2.816,2.816,0,0,1,.366-.37,2.7,2.7,0,0,1,.42-.289c.074-.04.15-.078.227-.11s.162-.062.223-.084l6.433-2.238,3.216-1.119.8-.28.2-.07.1-.035.079-.03a1.7,1.7,0,0,0,.3-.158,1.817,1.817,0,0,0,.268-.218l.311-.31.629-.629,5.036-5.033a.5.5,0,0,1,.768.052.668.668,0,0,1-.046.865Z" transform="translate(-117.5 -238.142)"/>
            </g>
            <g id="Gruppe_6" data-name="Gruppe 6" transform="translate(30.12)">
              <path id="Pfad_14" data-name="Pfad 14" class="cls-2" d="M265,252.538l2.656,7.8.332.975.168.493a3.539,3.539,0,0,0,.252.559,3.341,3.341,0,0,0,.339.5l.1.112.083.092.165.183.66.733,2.641,2.932,5.282,5.864c.059.066.1.11.143.166s.084.111.123.169a2.49,2.49,0,0,1,.337.781c.018.071.031.14.043.215l.041.257.326,2.056.652,4.111a.369.369,0,0,0,.421.33.407.407,0,0,0,.294-.468l-.6-4.121-.3-2.06-.037-.258c-.015-.1-.033-.2-.055-.3a3.6,3.6,0,0,0-.182-.57,3.481,3.481,0,0,0-.273-.524c-.053-.082-.108-.162-.168-.238s-.127-.154-.177-.212l-5.208-5.947-2.6-2.974-.651-.743-.163-.186-.081-.093-.064-.077a2.224,2.224,0,0,1-.221-.334,2.356,2.356,0,0,1-.162-.373l-.158-.484-.32-.98-2.558-7.84a.557.557,0,0,0-.735-.383.67.67,0,0,0-.34.827Z" transform="translate(-264.966 -248.901)"/>
              <path id="Pfad_15" data-name="Pfad 15" class="cls-2" d="M270.3,239.219l5.1,4.948.638.619.323.313a2.756,2.756,0,0,0,.418.328,2.6,2.6,0,0,0,.464.235l.12.043.1.033.2.067.808.266,3.231,1.065,6.461,2.131c.073.024.121.04.177.063s.108.048.161.075a1.9,1.9,0,0,1,.3.2,1.959,1.959,0,0,1,.262.258c.041.048.077.1.116.15l.131.186,1.045,1.486,2.091,2.971a.32.32,0,0,0,.485.063.423.423,0,0,0,.059-.541l-2.052-3.006-1.026-1.5-.128-.188c-.049-.07-.1-.144-.158-.211a2.814,2.814,0,0,0-.366-.37,2.7,2.7,0,0,0-.42-.289c-.074-.04-.15-.078-.227-.11s-.162-.062-.223-.084l-6.433-2.238-3.216-1.119-.8-.28-.2-.07-.1-.035-.079-.03a1.7,1.7,0,0,1-.3-.158,1.813,1.813,0,0,1-.268-.218l-.311-.31-.629-.629L271.02,238.3a.5.5,0,0,0-.768.052.668.668,0,0,0,.046.865Z" transform="translate(-269.063 -238.142)"/>
            </g>
          </g>
        </g>
        <path id="Pfad_16" data-name="Pfad 16" class="cls-2" d="M231.36,204.957a13.955,13.955,0,0,0,1.784-.117c1.759-2.336,3-7.47,3-9.482a4.785,4.785,0,1,0-9.57,0c0,2.012,1.242,7.146,3,9.482A13.954,13.954,0,0,0,231.36,204.957Z" transform="translate(-190.261 -171.415)"/>
      </g>
    </g>
  </g>
</svg>
